<?xml version="1.0" encoding="UTF-8" standalone="no"?>
<svg
   height="533.33331"
   width="533.33331"
   viewBox="-33.4974 -55.829 129.02702 223.31599"
   version="1.1"
   id="svg19"
   sodipodi:docname="Spotify.svg"
   inkscape:version="1.1.1 (3bf5ae0d25, 2021-09-20)"
   xmlns:inkscape="http://www.inkscape.org/namespaces/inkscape"
   xmlns:sodipodi="http://sodipodi.sourceforge.net/DTD/sodipodi-0.dtd"
   xmlns="http://www.w3.org/2000/svg"
   xmlns:svg="http://www.w3.org/2000/svg">
  <defs
     id="defs23" />
  <sodipodi:namedview
     id="namedview21"
     pagecolor="#ffffff"
     bordercolor="#666666"
     borderopacity="1.0"
     inkscape:pageshadow="2"
     inkscape:pageopacity="0.0"
     inkscape:pagecheckerboard="0"
     showgrid="false"
     inkscape:zoom="1.01125"
     inkscape:cx="15.327565"
     inkscape:cy="266.50185"
     inkscape:window-width="1920"
     inkscape:window-height="1017"
     inkscape:window-x="1912"
     inkscape:window-y="-8"
     inkscape:window-maximized="1"
     inkscape:current-layer="svg19" />
  <path
     d="M 97.331218,43.111012 C 61.328355,21.656747 1.9424354,19.684461 -32.426932,30.151131 c -5.520665,1.680208 -11.356434,-1.44534 -13.027937,-6.983802 -1.6725,-5.541474 1.43944,-11.394097 6.962107,-13.077315 C 0.96213972,-1.9263819 66.54693,0.39419156 107.99444,25.081401 c 4.9655,2.957928 6.59199,9.390694 3.6501,14.363065 -2.9449,4.981404 -9.36183,6.624475 -14.314322,3.666546 M 96.15187,74.886409 C 93.626097,78.999606 88.266484,80.289371 84.173248,77.764041 54.159192,59.251645 8.3883812,53.887828 -27.122333,64.703789 c -4.604393,1.395154 -9.468854,-1.208466 -10.867282,-5.821508 a 8.719631,8.7493251 0 0 1 5.806751,-10.896257 c 40.565243,-12.352638 90.99546,-6.370537 125.46986,14.888005 4.093232,2.529344 5.381624,7.909221 2.864874,12.01238 M 82.484738,105.40315 a 6.9560989,6.9797874 0 0 1 -9.571887,2.3246 C 46.684937,91.643318 13.671976,88.010899 -25.206756,96.921821 a 6.9570992,6.9807911 0 0 1 -8.333514,-5.251402 6.9520978,6.9757725 0 0 1 5.234579,-8.364905 c 42.545838,-9.758052 79.04085,-5.558536 108.480733,12.492154 a 6.9621007,6.9858097 0 0 1 2.310697,9.605482 M 31.260282,-56.243059 c -61.682607,0 -111.689697,50.1753767 -111.689697,112.070052 0,61.900697 50.00709,112.074067 111.690698,112.074067 61.686611,0 111.692707,-50.17337 111.692707,-112.074067 0,-61.8936717 -50.005097,-112.070052 -111.692707,-112.070052"
     fill="#191414"
     id="path17"
     clip-path="none"
     style="stroke-width:1.00201" />
</svg>
